<svg fill="#ffffff" xmlns="http://www.w3.org/2000/svg"   viewBox="0 0 50 50" width="24px" height="24px"><path d="M 7 2 C 4.239 2 2 4.239 2 7 L 2 34 C 2 36.761 4.239 39 7 39 L 34 39 C 36.761 39 39 36.761 39 34 L 39 7 C 39 6.486 38.899859 6.0002031 38.755859 5.5332031 L 19.144531 27.347656 L 9.3554688 18.724609 L 10.677734 17.222656 L 18.980469 24.537109 L 37.724609 3.6933594 C 36.808609 2.6623594 35.487 2 34 2 L 7 2 z M 41 11 L 41 35 C 41 38.301 38.301 41 35 41 L 11 41 L 11 43 C 11 45.801 13.199 48 16 48 L 43 48 C 45.801 48 48 45.801 48 43 L 48 16 C 48 13.199 45.801 11 43 11 L 41 11 z"/></svg>